<svg width="294" height="74" viewBox="0 0 294 74" fill="none" xmlns="http://www.w3.org/2000/svg">
<g clip-path="url(#clip0)">
<path d="M36.75 73.5C57.0465 73.5 73.5 57.0465 73.5 36.75C73.5 16.4535 57.0465 0 36.75 0C16.4535 0 0 16.4535 0 36.75C0 57.0465 16.4535 73.5 36.75 73.5Z" fill="#F3F6F6"/>
<path d="M51.895 30.0394C51.7638 29.9081 51.6325 29.8425 51.4357 29.8425H39.3622L37.6562 28.2677V27.021C38.1155 26.8241 38.9029 26.5617 39.6247 26.5617C39.8215 26.5617 40.7402 26.8241 41.3963 27.021C42.643 27.4147 44.021 27.874 44.874 27.874C46.3176 27.874 47.7611 27.1522 47.7611 27.1522C47.958 27.021 48.1548 26.8241 48.1548 26.5617V21.9685C48.1548 21.7717 48.0236 21.5092 47.8268 21.4436C47.6299 21.3123 47.3674 21.3123 47.1706 21.4436C46.9081 21.5748 45.7926 21.9685 44.874 21.9685C44.2178 21.9685 42.9055 21.5748 41.79 21.1811C40.6745 20.853 40.0184 20.6562 39.6247 20.6562C38.9029 20.6562 38.1811 20.853 37.6562 20.9843V20.6562C37.6562 20.2625 37.3937 20 37 20C36.6063 20 36.3438 20.2625 36.3438 20.6562V21.9685V26.5617V28.2677L34.769 29.8425H22.5643C22.3675 29.8425 22.2362 29.9081 22.105 30.0394L16.1995 35.9449C16.0027 36.1417 15.937 36.4042 16.0683 36.6666C16.1995 36.9291 16.3964 37.0603 16.6588 37.0603H19.2835V52.1522C19.2835 52.5459 19.546 52.8083 19.9397 52.8083H33.063H40.937H54.0603C54.454 52.8083 54.7165 52.5459 54.7165 52.1522V37.0603H57.3412C57.6036 37.0603 57.8661 36.9291 57.9317 36.6666C58.063 36.4042 57.9973 36.1417 57.8005 35.9449L51.895 30.0394ZM37.6562 22.4278C38.1155 22.231 38.9029 21.9685 39.6247 21.9685C39.8215 21.9685 40.7402 22.231 41.3963 22.4934C42.7087 22.8871 44.021 23.2808 44.874 23.2808C45.5958 23.2808 46.3176 23.084 46.8425 22.9528V26.168C46.3832 26.3648 45.5958 26.6273 44.874 26.6273C44.2178 26.6273 42.9055 26.2336 41.79 25.8399C40.6745 25.4462 40.0184 25.2493 39.6247 25.2493C38.9029 25.2493 38.1811 25.4462 37.6562 25.5774V22.4278ZM18.2336 35.748L22.8268 31.1548H33.4567L28.8635 35.748H19.9397H18.2336ZM36.3438 51.496H33.7192V43.622H36.3438V51.496ZM40.2808 51.496H37.6562V43.622H40.2808V51.496ZM53.4042 51.496H41.5932V42.9658C41.5932 42.5721 41.3307 42.3097 40.937 42.3097H33.063C32.6693 42.3097 32.4068 42.5721 32.4068 42.9658V51.496H20.5958V37.0603H29.126C29.3228 37.0603 29.4541 36.9947 29.5853 36.8635L35.4908 30.958L37 29.4488L45.0709 36.8635C45.2021 36.9947 45.3333 37.0603 45.5302 37.0603H53.4042V51.496ZM54.0603 35.748H45.7926L40.8058 31.1548H51.1732L55.7664 35.748H54.0603Z" fill="#55B3F3"/>
<path d="M29.782 42.3096H23.2204C22.8267 42.3096 22.5642 42.572 22.5642 42.9657V47.5589C22.5642 47.9526 22.8267 48.2151 23.2204 48.2151H29.782C30.1757 48.2151 30.4382 47.9526 30.4382 47.5589V42.9657C30.4382 42.572 30.1757 42.3096 29.782 42.3096ZM29.1259 46.9027H23.8765V43.6219H29.1259V46.9027Z" fill="#55B3F3"/>
<path d="M43.5618 42.9657V47.5589C43.5618 47.9526 43.8242 48.2151 44.2179 48.2151H50.7796C51.1733 48.2151 51.4358 47.9526 51.4358 47.5589V42.9657C51.4358 42.572 51.1733 42.3096 50.7796 42.3096H44.2179C43.8242 42.3096 43.5618 42.572 43.5618 42.9657ZM44.8741 43.6219H50.1234V46.9027H44.8741V43.6219Z" fill="#55B3F3"/>
<path d="M36.9999 33.7795C35.5563 33.7795 34.3752 34.9606 34.3752 36.4042C34.3752 37.8478 35.5563 39.0289 36.9999 39.0289C38.4435 39.0289 39.6246 37.8478 39.6246 36.4042C39.6246 34.9606 38.4435 33.7795 36.9999 33.7795ZM36.9999 37.7165C36.2781 37.7165 35.6876 37.126 35.6876 36.4042C35.6876 35.6824 36.2781 35.0919 36.9999 35.0919C37.7217 35.0919 38.3122 35.6824 38.3122 36.4042C38.3122 37.126 37.7217 37.7165 36.9999 37.7165Z" fill="#55B3F3"/>
<path d="M110.078 19.8087C111.33 19.8087 112.582 19.5841 113.48 18.6534C113.737 18.3646 113.833 17.9474 114.282 17.9474C114.539 17.9474 114.7 18.172 114.7 18.4288V18.4929C113.191 21.0282 110.463 22.5366 107.511 22.5366C106.933 22.5366 106.356 22.4724 105.778 22.4403H105.682L103.724 27.8318L103.628 28.1849L99.6483 38.8074C99.0385 40.4442 97.1771 42.0167 95.38 42.0167C95.059 42.0167 94.8344 41.9846 94.5135 41.8562C94.3851 41.8241 94.0321 41.6958 94.0321 41.6958L94 41.6637L94.6739 41.3427C94.9949 41.2144 95.2516 40.8293 95.4121 40.6046C95.4763 40.5083 95.7009 40.1232 95.7651 40.027C95.8293 39.9628 95.9897 39.6739 96.0218 39.6098L96.6958 38.2298L97.6264 36.0475L102.537 22.0552C102.119 22.0231 101.734 21.991 101.317 21.991C98.6855 21.991 97.466 23.1142 96.5995 25.5533C96.5353 25.6816 96.2786 25.7137 96.1502 25.7137C95.9576 25.7137 95.7009 25.5533 95.7009 25.3286C96.8562 21.5417 99.2952 19.1669 103.339 19.1669C103.852 19.1669 104.398 19.1669 104.911 19.2311L108.891 19.7445C108.987 19.7766 109.533 19.8087 109.661 19.8087H110.078V19.8087ZM109.501 23.7561C109.501 22.6329 110.72 21.3492 111.875 21.3492C112.678 21.3492 113.127 21.9589 113.127 22.7612C113.127 23.8845 112.068 25.1361 110.881 25.1361C110.11 25.1361 109.501 24.5584 109.501 23.7561V23.7561ZM105.682 32.9024C105.682 31.9076 106.035 30.9127 106.388 29.982C106.42 29.8857 106.58 29.4365 106.612 29.4044L108.217 25.9384C108.345 25.6495 108.538 25.457 108.827 25.457C109.083 25.457 109.308 25.5533 109.533 25.6175C110.078 25.81 110.881 26.1309 110.881 26.837C110.881 26.9332 110.881 27.0616 110.816 27.1258C110.367 27.8639 109.918 28.7946 109.533 29.5969C109.469 29.7574 109.116 30.5918 109.051 30.7843C108.827 31.362 108.602 32.0359 108.602 32.6457C108.602 32.8703 108.634 33.0308 108.891 33.0308C109.404 33.0308 109.95 32.6778 110.367 32.4531C110.463 32.389 110.816 32.1964 110.849 32.1643C111.105 31.9718 111.875 31.4583 111.94 31.3941L113.223 30.4313L113.512 30.1425L114.796 28.7304L116.144 27.0295C116.208 26.9653 116.336 26.8049 116.433 26.7728C116.625 26.7728 117.01 26.8049 117.01 27.0616V27.2863L116.272 28.2811L115.181 29.629L113.897 31.009C113.801 31.1053 113.095 31.7792 112.87 31.9718C111.555 33.2875 109.34 34.7638 107.447 34.7638C106.291 34.7638 105.682 34.0257 105.682 32.9024V32.9024ZM114.347 32.7099C114.347 29.1155 117.941 25.0077 121.632 25.0077C122.562 25.0077 123.557 25.3928 123.557 26.484C123.557 28.7304 120.123 30.0462 118.134 30.2709C117.973 30.8485 117.845 31.4583 117.845 32.1001C117.845 32.9987 118.134 34.1861 119.257 34.1861C120.22 34.1861 121.214 33.448 121.92 32.8703C122.049 32.742 122.53 32.3248 122.562 32.2927L123.782 31.0732L125.483 29.2439L127.408 26.8049C127.44 26.7728 127.504 26.7086 127.569 26.6765C127.761 26.6765 128.146 26.7407 128.146 27.0295L128.05 27.3184L126.798 28.9551L124.969 31.1053L123.3 32.8062C123.236 32.9024 122.691 33.3517 122.53 33.5122C121.182 34.6354 119.578 35.6945 117.748 35.6945C115.694 35.6945 114.347 34.828 114.347 32.7099V32.7099ZM118.005 29.1797V29.2118C118.134 29.1797 118.711 29.0513 118.84 29.0193C118.968 28.9551 119.481 28.8267 119.578 28.7946C119.706 28.7304 120.187 28.5379 120.316 28.5058C120.99 28.2169 122.273 27.4788 122.273 26.5802C122.273 26.2593 122.081 26.0347 121.728 26.0347C120.38 26.0347 118.807 27.1579 118.262 28.3453C118.166 28.6021 118.005 28.923 118.005 29.1797V29.1797ZM128.531 24.9756V24.9114C128.531 24.9114 128.66 24.751 128.756 24.6547C129.783 24.8472 130.714 25.4891 130.714 26.6123C130.714 26.7728 130.682 26.9653 130.617 27.0937L129.623 29.4044C129.719 29.276 130.136 28.7304 130.232 28.6341C130.393 28.4095 131.227 27.4146 131.42 27.2221C132.19 26.2593 133.859 24.7189 135.046 24.7189C136.009 24.7189 136.458 25.4891 136.458 26.3877C136.458 27.0937 136.234 27.7676 135.881 28.4095L134.501 31.0411C134.533 30.9769 134.757 30.7522 134.789 30.7202L138.031 27.4788L139.186 26.484C139.25 26.4198 139.796 26.0026 139.956 25.8742C140.727 25.3607 141.657 24.751 142.62 24.751C143.358 24.751 143.872 25.104 143.872 25.8742C143.872 26.4519 143.198 28.57 142.748 29.0193L140.855 32.2285C140.47 32.9024 140.117 33.7689 140.117 34.5391C140.117 34.828 140.117 35.3094 140.438 35.4377H140.534C141.433 35.4377 142.331 34.5071 142.845 33.8973C142.941 33.801 143.326 33.3838 143.39 33.3196C143.551 33.095 144.128 32.3569 144.193 32.2606L147.338 27.6714C147.466 27.4788 147.562 27.3504 147.562 27.1258H147.723C147.979 27.1258 148.14 27.1258 148.3 27.3825C148.332 27.4146 148.365 27.4788 148.365 27.543C148.365 27.5751 148.365 27.5751 148.332 27.6072C148.268 27.7997 147.979 28.2169 147.979 28.249L146.022 31.2978L144.128 33.8973C143.326 35.1168 141.368 36.8819 139.924 36.8819C138.32 36.8819 137.421 35.9512 137.421 34.3787C137.421 33.3196 137.806 32.3248 138.288 31.4262L139.732 28.7304C139.86 28.4737 140.021 28.1849 140.021 27.896C140.021 27.8639 140.021 27.7997 139.988 27.7676H139.924C139.507 27.7676 138.48 28.3774 138.127 28.7304C137.902 28.923 137.261 29.4685 137.196 29.5327L135.592 31.1053L133.506 33.3838L132.126 35.2773C131.837 35.6624 131.452 35.7908 130.97 35.7908C130.329 35.7908 129.27 35.7908 129.27 34.8601C129.27 34.7638 129.27 34.6675 129.302 34.6033L132.639 28.249C132.703 28.1207 132.8 27.896 132.832 27.7356C132.19 27.9923 131.644 28.6021 131.195 29.0834C131.003 29.3081 130.489 29.8857 130.425 29.9499L129.302 31.362L128.339 32.8062C128.178 33.0308 127.954 33.4159 127.825 33.7047L127.119 35.534C127.119 35.5661 127.119 35.5661 127.087 35.5982C126.798 35.7587 126.478 35.887 126.125 35.887C125.418 35.887 124.712 35.534 124.263 35.0205V34.9243C124.263 34.1219 125.001 31.9397 125.322 31.2336L126.092 29.4685L128.531 24.9756ZM134.469 31.0411V31.0732C134.501 31.0732 134.501 31.0411 134.469 31.0411ZM129.623 29.4365V29.4044C129.59 29.4044 129.59 29.4365 129.623 29.4365ZM150.322 26.4519C150.611 26.2914 150.964 26.0988 151.285 26.0988C151.606 26.0988 151.895 26.3877 151.895 26.7086C151.895 26.7407 151.895 26.7407 151.863 26.7728C151.863 26.8691 151.798 27.0616 151.798 27.0616L151.092 29.276C151.478 28.923 151.863 28.4737 152.248 28.0886C153.018 27.3504 154.302 26.2593 155.489 26.2593C156.548 26.2593 156.933 27.2221 156.933 28.1528C156.933 29.2118 156.452 30.2388 155.97 31.1694H156.003L156.035 31.1374C157.511 30.4955 158.987 29.5648 160.014 28.3132C160.142 28.1849 160.399 27.8318 160.431 27.7997V27.7676L160.496 27.543H160.528L161.137 27.9281V27.9602C159.789 29.982 157.607 31.2657 155.393 32.1964C155.361 32.1964 155.329 32.2285 155.329 32.2285C154.237 33.8652 152.408 35.6303 150.322 35.6303C149.68 35.6303 149.199 35.2773 149.231 34.6033L148.14 37.5879L147.37 39.2888C147.338 39.3851 147.017 39.9949 146.888 40.2195C146.824 40.2837 146.567 40.733 146.503 40.8293C145.54 42.3055 144.16 43.7497 142.267 43.7497H142.01C141.433 43.7176 140.983 43.3646 140.919 42.7548V42.5623C140.919 41.5674 141.465 40.4762 141.946 39.6098C142.074 39.4172 142.46 38.7433 142.524 38.647L143.358 37.4275L144.61 35.887L147.306 32.8703L149.552 26.9012V26.8691C149.552 26.8691 150.098 26.5481 150.322 26.4519V26.4519ZM152.472 32.4531C152.504 32.4531 152.793 32.3569 152.858 32.3569C153.531 31.2657 154.013 30.2067 154.462 29.0834C154.494 29.0193 154.655 28.5379 154.687 28.4416C154.783 28.0886 154.911 27.7356 154.911 27.3825V27.2542C154.911 27.2221 154.879 27.19 154.847 27.19C154.302 27.19 153.756 27.6714 153.403 27.9923C153.307 28.0565 153.082 28.2811 153.05 28.3132L152.119 29.276L150.354 31.3299L149.359 34.1861V34.2182C149.969 33.2875 151.478 32.7741 152.472 32.4531V32.4531ZM142.042 42.6906C142.813 42.6906 144.289 40.7009 144.578 40.0911L145.027 39.1605L145.573 37.7805L146.535 34.9884L144.61 37.0424C144.513 37.1386 144 37.7805 143.84 37.973C143.775 38.1014 143.358 38.647 143.294 38.7754C142.652 39.6739 141.85 41.1181 141.85 42.2734V42.466C141.85 42.5623 141.914 42.6906 142.042 42.6906V42.6906ZM152.216 33.2875V33.3196H152.184C152.151 33.3196 151.67 33.5122 151.478 33.5764C151.381 33.6406 150.964 33.801 150.836 33.8652C150.579 33.9936 149.937 34.3145 149.937 34.6675C149.937 34.8601 150.194 34.9243 150.354 34.9243C150.9 34.9243 151.574 34.154 151.831 33.801C151.863 33.7689 152.119 33.4801 152.184 33.3517L152.216 33.3196C152.248 33.3196 152.248 33.2875 152.216 33.2875V33.2875ZM149.359 34.2824V34.2503C149.327 34.2503 149.327 34.2824 149.359 34.2824ZM151.06 29.276V29.3081C151.092 29.3081 151.092 29.276 151.06 29.276ZM157.415 33.2234C157.415 31.7792 158.249 30.2388 158.987 29.0513C160.175 27.19 162.582 24.2054 165.085 24.2054C166.272 24.2054 166.754 25.0719 166.754 26.1951C166.754 27.6393 165.983 29.1155 165.309 30.3671C165.63 30.3671 165.951 30.2709 166.24 30.1425C167.716 29.5969 168.936 28.4095 169.802 27.1579L169.834 27.1258C170.22 27.1258 170.348 27.19 170.476 27.6072C170.412 27.7356 170.155 28.0565 170.155 28.0886C170.123 28.1207 169.931 28.3774 169.866 28.4416C168.615 29.9178 166.721 31.2657 164.732 31.2657V31.2978C163.769 32.5815 161.394 35.534 159.629 35.534C158.217 35.534 157.415 34.6354 157.415 33.2234V33.2234ZM163.288 28.4095C163.288 29.0193 163.384 29.8216 163.961 30.2067C164.058 30.2388 164.186 30.335 164.315 30.335C165.053 29.2439 165.919 27.5109 165.919 26.163C165.919 25.5854 165.694 25.0398 165.053 25.0398C164.154 25.0398 163.544 26.516 163.416 27.2221C163.32 27.6072 163.288 27.9923 163.288 28.4095ZM160.207 33.3838C160.207 33.6406 160.271 33.8973 160.56 33.8973C161.202 33.8973 161.843 33.3196 162.228 32.9024C162.325 32.8383 162.678 32.4852 162.742 32.389C162.838 32.2606 163.384 31.6187 163.512 31.4904C163.544 31.4262 163.769 31.1374 163.801 31.1053C163.801 31.0732 163.384 30.8806 163.32 30.8485C162.614 30.3992 162.261 29.6611 162.1 28.8267V28.8588C162.068 28.8588 161.843 29.2439 161.747 29.4044C161.202 30.335 160.207 32.2606 160.207 33.3838ZM168.23 28.7946C168.23 26.2593 169.899 23.5956 172.691 23.5956C173.108 23.5956 173.493 23.7882 173.718 24.1412C173.75 24.2375 174.039 24.6868 174.071 24.8151C174.071 24.8151 174.006 24.8151 173.974 24.7831C173.621 24.6226 173.3 24.3979 172.915 24.3979C171.599 24.3979 170.797 26.4519 170.797 27.543C170.797 27.9602 170.861 28.3453 170.99 28.7304L171.599 30.8485L171.696 31.4904C171.728 31.4904 171.792 31.4262 171.824 31.4262L173.3 30.7202C174.745 29.982 175.996 29.0193 176.991 27.7676C177.055 27.7035 177.184 27.7035 177.248 27.7035C177.504 27.7035 177.697 27.8639 177.697 28.1207V28.2169C176.991 29.4365 174.712 30.9769 173.493 31.5225L171.76 32.3569L171.728 32.4211C171.696 33.0308 171.599 33.6085 171.375 34.1861C170.38 36.6893 167.524 38.3261 164.892 38.3261C164.186 38.2298 163.641 37.8447 163.512 37.1386C163.512 35.5019 164.892 34.6354 166.176 33.9294C166.336 33.8331 166.882 33.5443 166.978 33.5122L168.583 32.8062C168.615 32.8062 168.615 32.742 168.615 32.742V32.4211C168.615 32.2927 168.615 32.068 168.583 31.9076L168.326 29.982C168.262 29.5969 168.23 29.2118 168.23 28.7946V28.7946ZM165.823 35.0526C165.277 35.3415 164.764 36.0475 164.764 36.6893C164.764 37.0424 165.021 37.1707 165.341 37.1707C166.529 37.1707 167.427 35.7587 167.941 34.8601C167.941 34.7959 168.101 34.5071 168.166 34.4108C168.23 34.2824 168.39 33.9615 168.39 33.7689C168.358 33.7689 167.62 34.1219 167.299 34.2824C167.074 34.3787 166.047 34.9243 165.823 35.0526ZM188.544 19.4557V19.4236C190.213 19.4236 191.047 20.4827 191.047 22.1194C191.047 22.9859 190.791 23.8203 190.47 24.6226L189.475 26.9653V26.9974L190.919 24.5905C191.978 23.018 193.775 20.7394 195.797 20.7394C197.562 20.7394 198.589 21.991 198.589 23.6919C198.589 24.5905 198.332 25.457 198.012 26.2593L197.37 27.9602V27.9923L198.204 26.7407L200.29 23.9166L201.574 22.3761C201.67 22.2798 202.312 21.6059 202.537 21.4133C203.371 20.5789 204.655 19.4557 205.97 19.4557C207.928 19.4557 209.148 20.7394 209.148 22.697C209.148 23.5314 208.923 24.3979 208.634 25.1682L208.121 26.6444L204.526 34.9884L203.724 37.267L203.307 38.7754C203.114 39.4172 203.05 40.0911 203.05 40.7651C203.05 41.792 203.339 42.6585 204.526 42.6585C204.655 42.7227 204.751 42.8511 204.751 43.0116C204.751 43.2041 204.655 43.4288 204.462 43.4929C201.895 43.4929 200.322 42.466 200.322 39.7381C200.322 37.5879 201.125 35.5019 201.927 33.5122L205.2 26.163C205.232 26.0668 205.489 25.3286 205.585 25.104C205.874 24.1733 206.099 23.1463 206.099 22.1836C206.099 21.8947 206.131 21.2529 205.714 21.1566H205.617C205.04 21.1566 204.173 21.8947 203.756 22.3119L203.082 22.9859C202.922 23.1784 202.28 23.8524 202.216 23.9487L200.932 25.4891L198.718 28.4737L195.765 33.0308L194.385 35.5019L193.743 36.914C193.519 37.3954 193.326 37.973 193.23 38.5507C193.198 38.7112 192.299 38.9679 192.074 38.9679C191.465 38.9679 191.272 38.3902 191.272 37.8768C191.272 37.0103 191.593 36.0154 191.914 35.2131L194.128 29.8537L195.284 26.6765L195.701 25.2003C195.861 24.6547 195.958 24.0128 195.958 23.4031C195.958 22.9859 195.926 22.3761 195.348 22.3761C193.743 22.3761 192.331 24.1091 191.497 25.2965C191.368 25.4891 190.951 26.0988 190.919 26.163L190.117 27.5751L189.058 29.629L187.036 34.2824L185.078 39.6739C185.078 39.8023 184.051 39.9628 183.891 39.9628C183.409 39.9628 182.896 39.7702 182.575 39.353C182.543 39.2888 182.383 39.1284 182.383 39L182.607 37.973L183.345 35.1489L184.565 31.6508L188.448 22.3761C188.705 21.8306 188.833 21.1887 188.833 20.5789C188.833 20.1617 188.705 19.8408 188.544 19.4557V19.4557ZM189.475 26.9974C189.443 26.9974 189.443 26.9974 189.475 26.9974V26.9974ZM189.443 27.0616V27.0295C189.411 27.0295 189.411 27.0616 189.443 27.0616ZM189.411 27.0937C189.443 27.0937 189.443 27.0616 189.411 27.0616V27.0937ZM197.37 27.9923C197.338 27.9923 197.338 27.9923 197.37 27.9923V27.9923ZM197.338 28.0244C197.37 28.0244 197.37 27.9923 197.338 27.9923V28.0244ZM207.19 33.2234C207.19 31.7792 208.024 30.2388 208.763 29.0513C209.95 27.19 212.357 24.2054 214.86 24.2054C216.047 24.2054 216.529 25.0719 216.529 26.1951C216.529 27.6393 215.759 29.1155 215.085 30.3671C215.406 30.3671 215.727 30.2709 216.015 30.1425C217.492 29.5969 218.711 28.4095 219.578 27.1579L219.61 27.1258C219.995 27.1258 220.123 27.19 220.252 27.6072C220.187 27.7356 219.931 28.0565 219.931 28.0886C219.899 28.1207 219.706 28.3774 219.642 28.4416C218.39 29.9178 216.497 31.2657 214.507 31.2657V31.2978C213.544 32.5815 211.169 35.534 209.404 35.534C207.992 35.534 207.19 34.6354 207.19 33.2234V33.2234ZM213.063 28.4095C213.063 29.0193 213.159 29.8216 213.737 30.2067C213.833 30.2388 213.961 30.335 214.09 30.335C214.828 29.2439 215.694 27.5109 215.694 26.163C215.694 25.5854 215.47 25.0398 214.828 25.0398C213.929 25.0398 213.32 26.516 213.191 27.2221C213.095 27.6072 213.063 27.9923 213.063 28.4095ZM209.982 33.3838C209.982 33.6406 210.046 33.8973 210.335 33.8973C210.977 33.8973 211.619 33.3196 212.004 32.9024C212.1 32.8383 212.453 32.4852 212.517 32.389C212.614 32.2606 213.159 31.6187 213.288 31.4904C213.32 31.4262 213.544 31.1374 213.576 31.1053C213.576 31.0732 213.159 30.8806 213.095 30.8485C212.389 30.3992 212.036 29.6611 211.875 28.8267V28.8588C211.843 28.8588 211.619 29.2439 211.522 29.4044C210.977 30.335 209.982 32.2606 209.982 33.3838V33.3838ZM229.334 21.3171L230.168 19.8729L231.067 18.5571C231.099 18.4929 231.58 17.8832 231.709 17.7227C231.805 17.6264 232.19 17.1772 232.286 17.0809C233.891 15.3479 235.592 14 238.063 14C239.026 14.0963 239.379 14.8665 239.379 15.7651C239.379 17.7227 238.095 19.6483 236.908 21.0924C236.747 21.285 236.105 22.0231 236.041 22.1194L234.725 23.4352L232.35 25.5854L229.815 27.6714C229.783 27.6714 229.783 27.7035 229.783 27.7356L229.366 29.2118L228.884 31.5225C228.756 32.1322 228.756 32.7741 228.756 33.4159C228.82 34.154 229.237 35.0847 230.04 35.0847C230.778 35.0847 231.516 34.475 232.03 34.0578C232.222 33.9294 232.736 33.4801 232.768 33.448L233.987 32.2606L235.592 30.4955L238.352 26.9332C238.352 26.9012 238.352 26.8691 238.384 26.837C238.48 26.8049 238.544 26.7728 238.641 26.7728C238.961 26.7728 239.122 26.9974 239.122 27.2863L234.533 33.0308C234.501 33.095 233.891 33.7047 233.666 33.9294C232.35 35.1489 230.297 36.6893 228.371 36.6893C226.028 36.6893 225.483 33.9936 225.483 32.1322C225.483 31.6187 225.579 31.1374 225.707 30.656V30.6239L222.915 33.0308L221.599 33.9936C220.958 34.6354 219.225 35.4056 218.39 35.4056C217.524 35.4056 217.267 34.7638 217.267 33.9615C217.267 31.5866 219.449 28.9551 221.054 27.3504C222.562 25.9063 224.52 24.3659 226.702 24.3659C226.927 24.3659 227.151 24.3659 227.344 24.3979C227.472 24.43 227.665 24.4942 227.793 24.4942L228.243 23.4994L229.334 21.3171ZM230.297 26.2272V26.2593L232.864 23.9487L234.886 21.8947C234.982 21.7985 235.656 20.9961 235.849 20.7715C235.945 20.6431 236.522 19.9371 236.651 19.7766C236.683 19.6804 237.068 19.1669 237.164 19.0385C237.582 18.3967 238.031 17.5944 238.031 16.8241C238.031 16.5032 237.902 15.8935 237.517 15.8935C236.169 15.8935 233.923 18.846 233.281 19.8729L232.447 21.2529C232.383 21.3813 231.805 22.5045 231.644 22.8575C231.516 23.1142 231.099 24.077 231.035 24.2375L230.297 26.1309V26.2272V26.2272ZM219.834 33.6727C219.834 33.8652 219.931 33.9615 220.091 33.9615C220.316 33.9615 220.54 33.7689 220.701 33.6727L223.044 31.8434L225.258 29.9178L226.157 29.0513L226.959 26.5802L227.248 25.81C227.248 25.81 227.216 25.7779 227.184 25.7779H227.119C225.9 25.7779 224.52 26.9974 223.718 27.7676C223.557 27.9281 223.044 28.4737 223.012 28.5379L221.985 29.7253C221.92 29.7895 221.439 30.4313 221.311 30.656C221.246 30.7843 220.861 31.362 220.765 31.4904C220.733 31.5546 220.412 32.1001 220.348 32.2285C220.091 32.6457 219.834 33.1913 219.834 33.6727V33.6727ZM230.264 26.2914C230.297 26.2914 230.297 26.2593 230.264 26.2593V26.2914ZM236.49 32.7099C236.49 29.1155 240.085 25.0077 243.775 25.0077C244.706 25.0077 245.701 25.3928 245.701 26.484C245.701 28.7304 242.267 30.0462 240.277 30.2709C240.117 30.8485 239.988 31.4583 239.988 32.1001C239.988 32.9987 240.277 34.1861 241.401 34.1861C242.363 34.1861 243.358 33.448 244.064 32.8703C244.193 32.742 244.674 32.3248 244.706 32.2927L245.926 31.0732L247.626 29.2439L249.552 26.8049C249.584 26.7728 249.648 26.7086 249.712 26.6765C249.905 26.6765 250.29 26.7407 250.29 27.0295L250.194 27.3184L248.942 28.9551L247.113 31.1053L245.444 32.8062C245.38 32.9024 244.834 33.3517 244.674 33.5122C243.326 34.6354 241.721 35.6945 239.892 35.6945C237.838 35.6945 236.49 34.828 236.49 32.7099V32.7099ZM240.149 29.1797V29.2118C240.277 29.1797 240.855 29.0513 240.983 29.0193C241.112 28.9551 241.625 28.8267 241.721 28.7946C241.85 28.7304 242.331 28.5379 242.46 28.5058C243.133 28.2169 244.417 27.4788 244.417 26.5802C244.417 26.2593 244.225 26.0347 243.872 26.0347C242.524 26.0347 240.951 27.1579 240.406 28.3453C240.309 28.6021 240.149 28.923 240.149 29.1797V29.1797ZM247.883 30.2067L247.915 29.9178C248.268 27.2542 249.68 25.3286 252.087 24.2375C253.564 25.0077 255.232 25.6496 256.933 25.6496C257.286 25.6496 257.639 25.5854 257.992 25.5854V25.6175C257.896 25.6816 257.575 26.0988 257.511 26.1951C257.415 26.2914 257.19 26.6123 257.158 26.6444L256.388 27.8639L254.366 31.6508L253.788 32.9666L253.082 34.828C252.986 35.0526 252.954 35.3094 252.954 35.5661C252.954 35.7908 252.986 35.9512 253.243 35.9512C253.724 35.9512 254.334 35.4698 254.655 35.181C254.783 35.1168 255.232 34.6996 255.329 34.6033C255.521 34.4429 256.356 33.6406 256.516 33.448C256.805 33.1592 257.703 32.1643 257.832 32.0359L261.137 27.9923V27.9281L261.169 27.8318H261.298C261.426 27.8318 261.555 27.8318 261.683 27.8639C261.747 27.9281 261.875 28.0565 261.875 28.1528V28.4737H261.779L260.335 30.335L257.703 33.4159L256.259 34.8922C256.227 34.9243 255.874 35.2452 255.778 35.3415C254.783 36.1759 253.307 37.4596 251.895 37.4596C250.418 37.4596 250.001 36.1438 250.001 34.8922C250.001 33.8973 250.322 32.9345 250.675 32.0359C250.771 31.8434 251.157 31.009 251.253 30.8485C251.349 30.6239 251.766 29.8857 251.831 29.7574L253.435 27.2542V27.2221C253.435 27.2221 253.307 27.1579 253.243 27.0937C252.825 26.8049 252.312 26.5481 251.766 26.5481C250.162 26.5481 248.974 28.5379 248.525 29.8216L248.3 30.4313C248.14 30.4313 247.979 30.335 247.883 30.2067V30.2067ZM262.549 25.5533V25.5212C262.806 25.5212 262.999 25.4249 263.223 25.4249C264.218 25.4249 264.571 26.3556 264.571 27.2221C264.571 27.2863 264.603 27.4467 264.539 27.543L262.967 30.5918V30.6239L264.7 28.9551L266.208 27.6714C266.304 27.6072 267.042 27.0616 267.267 26.9012C268.23 26.2272 269.481 25.4891 270.701 25.4891C271.375 25.4891 271.76 25.8742 271.76 26.516C271.76 27.1258 271.535 27.7997 271.279 28.3453L269.481 32.0359L269.064 33.1271C268.936 33.4801 268.775 33.9936 268.775 34.4108C268.775 34.5391 268.775 34.6675 268.936 34.6675C269.481 34.6675 270.059 34.2182 270.444 33.8973C270.861 33.6406 272.434 32.2285 272.691 31.8434L274.231 30.1425L276.51 27.3184L276.67 27.1579C276.702 27.1258 276.798 27.1258 276.831 27.1258C276.991 27.1258 277.184 27.2221 277.28 27.3504C277.344 27.4788 277.472 27.7676 277.472 27.7676V27.7997L277.184 27.7676L275.065 30.4634L272.691 33.1271L271.503 34.2824C271.439 34.3466 270.861 34.828 270.669 34.9564C269.899 35.5661 269 36.1117 267.973 36.1117C266.593 36.1117 265.694 35.0847 265.694 33.7368C265.694 33.1271 265.887 32.4852 266.144 31.9397L267.139 29.5648C267.235 29.3402 267.267 29.1797 267.267 28.9551C267.139 28.9551 266.946 29.0834 266.818 29.1797C266.754 29.2118 266.529 29.4044 266.497 29.4044C266.433 29.4685 266.176 29.6611 266.112 29.7253C265.887 29.8857 265.309 30.3992 265.245 30.4313L263.223 32.389L260.528 35.3094C260.207 35.6624 259.854 35.9833 259.372 35.9833C258.409 35.9833 257.671 35.2773 257.671 34.3466C257.671 33.2234 258.442 31.7792 259.083 30.8164L262.164 26.0668L262.549 25.5533ZM262.935 30.656C262.967 30.656 262.967 30.6239 262.935 30.6239V30.656ZM273.718 33.2234C273.718 31.7792 274.552 30.2388 275.29 29.0513C276.478 27.19 278.884 24.2054 281.388 24.2054C282.575 24.2054 283.056 25.0719 283.056 26.1951C283.056 27.6393 282.286 29.1155 281.612 30.3671C281.933 30.3671 282.254 30.2709 282.543 30.1425C284.019 29.5969 285.239 28.4095 286.105 27.1579L286.137 27.1258C286.522 27.1258 286.651 27.19 286.779 27.6072C286.715 27.7356 286.458 28.0565 286.458 28.0886C286.426 28.1207 286.234 28.3774 286.169 28.4416C284.918 29.9178 283.024 31.2657 281.035 31.2657V31.2978C280.072 32.5815 277.697 35.534 275.932 35.534C274.52 35.534 273.718 34.6354 273.718 33.2234V33.2234ZM279.59 28.4095C279.59 29.0193 279.687 29.8216 280.264 30.2067C280.361 30.2388 280.489 30.335 280.617 30.335C281.356 29.2439 282.222 27.5109 282.222 26.163C282.222 25.5854 281.997 25.0398 281.356 25.0398C280.457 25.0398 279.847 26.516 279.719 27.2221C279.623 27.6072 279.59 27.9923 279.59 28.4095ZM276.51 33.3838C276.51 33.6406 276.574 33.8973 276.863 33.8973C277.504 33.8973 278.146 33.3196 278.531 32.9024C278.628 32.8383 278.981 32.4852 279.045 32.389C279.141 32.2606 279.687 31.6187 279.815 31.4904C279.847 31.4262 280.072 31.1374 280.104 31.1053C280.104 31.0732 279.687 30.8806 279.623 30.8485C278.917 30.3992 278.564 29.6611 278.403 28.8267V28.8588C278.371 28.8588 278.146 29.2439 278.05 29.4044C277.504 30.335 276.51 32.2606 276.51 33.3838V33.3838ZM284.533 28.7946C284.533 26.2593 286.202 23.5956 288.994 23.5956C289.411 23.5956 289.796 23.7882 290.021 24.1412C290.053 24.2375 290.341 24.6868 290.374 24.8151C290.374 24.8151 290.309 24.8151 290.277 24.7831C289.924 24.6226 289.603 24.3979 289.218 24.3979C287.902 24.3979 287.1 26.4519 287.1 27.543C287.1 27.9602 287.164 28.3453 287.293 28.7304L287.902 30.8485L287.999 31.4904C288.031 31.4904 288.095 31.4262 288.127 31.4262L289.603 30.7202C291.047 29.982 292.299 29.0193 293.294 27.7676C293.358 27.7035 293.487 27.7035 293.551 27.7035C293.807 27.7035 294 27.8639 294 28.1207V28.2169C293.294 29.4365 291.015 30.9769 289.796 31.5225L288.063 32.3569L288.031 32.4211C287.999 33.0308 287.902 33.6085 287.678 34.1861C286.683 36.6893 283.827 38.3261 281.195 38.3261C280.489 38.2298 279.944 37.8447 279.815 37.1386C279.815 35.5019 281.195 34.6354 282.479 33.9294C282.639 33.8331 283.185 33.5443 283.281 33.5122L284.886 32.8062C284.918 32.8062 284.918 32.742 284.918 32.742V32.4211C284.918 32.2927 284.918 32.068 284.886 31.9076L284.629 29.982C284.565 29.5969 284.533 29.2118 284.533 28.7946V28.7946ZM282.126 35.0526C281.58 35.3415 281.067 36.0475 281.067 36.6893C281.067 37.0424 281.323 37.1707 281.644 37.1707C282.832 37.1707 283.73 35.7587 284.244 34.8601C284.244 34.7959 284.404 34.5071 284.469 34.4108C284.533 34.2824 284.693 33.9615 284.693 33.7689C284.661 33.7689 283.923 34.1219 283.602 34.2824C283.377 34.3787 282.35 34.9243 282.126 35.0526Z" fill="white"/>
<path d="M100.15 59.6058C100.265 59.6221 100.232 59.868 100.133 59.868H98.0927C97.9861 59.868 97.9698 59.6221 98.0681 59.6058C98.3795 59.5566 98.691 59.4337 98.3877 58.7206L98.2648 58.4338C98.191 58.2453 98.0107 58.2371 97.7485 58.2371H96.0438C95.7979 58.2371 95.6176 58.2453 95.5439 58.4338L95.4291 58.7206C95.1259 59.45 95.4373 59.5484 95.8471 59.6058C95.9454 59.6221 95.9291 59.868 95.8225 59.868H94.0933C93.9867 59.868 93.9621 59.6221 94.0687 59.6058C94.4129 59.5566 94.6096 59.4255 94.9128 58.7206L96.2979 55.5654C96.6175 54.8441 96.7158 54.4835 96.7158 54.1721C96.7158 54.1229 97.2977 53.9918 97.3223 54.0492L99.322 58.7124C99.6253 59.4255 99.8219 59.5566 100.15 59.6058ZM97.7485 57.8191C97.8714 57.8191 98.0107 57.8027 97.9616 57.6962L96.9125 55.2047L95.8635 57.6962C95.8143 57.8027 95.9454 57.8191 96.0684 57.8191H97.7485V57.8191ZM106.791 55.8686C106.791 57.352 105.422 57.9339 103.619 57.647V58.8764C103.619 59.45 103.996 59.5484 104.545 59.614C104.603 59.6221 104.562 59.868 104.496 59.868H102.128C102.062 59.868 102.013 59.6221 102.078 59.614C102.48 59.5566 102.767 59.4091 102.767 58.8764V55.172C102.767 54.6311 102.48 54.4753 102.078 54.3688C102.013 54.3524 102.054 54.1065 102.128 54.1147C102.455 54.1557 102.816 54.1639 103.062 54.1639C103.611 54.1639 104.103 54.1147 104.529 54.1147C105.75 54.1147 106.791 54.5737 106.791 55.8686V55.8686ZM104.357 54.5081C103.783 54.5081 103.619 54.6966 103.619 55.172V57.2864C105.07 57.4831 105.873 57.1881 105.873 56.0489C105.873 54.9835 105.176 54.5081 104.357 54.5081ZM114.653 59.6795C114.719 59.6795 114.71 59.8844 114.653 59.909C114.194 60.0811 113.514 60.0237 113.063 59.4418L111.785 57.8027C111.44 57.3602 110.99 57.2782 110.391 57.27V58.8764C110.391 59.45 110.768 59.5484 111.317 59.614C111.375 59.6221 111.334 59.868 111.268 59.868H108.9C108.834 59.868 108.785 59.6221 108.851 59.614C109.252 59.5566 109.539 59.4091 109.539 58.8764V55.172C109.539 54.6311 109.252 54.4753 108.851 54.3688C108.785 54.3524 108.826 54.1065 108.9 54.1147C109.228 54.1557 109.588 54.1639 109.834 54.1639C110.383 54.1639 110.908 54.1147 111.285 54.1147C112.457 54.1147 113.317 54.6065 113.317 55.6309C113.317 56.6062 112.506 57.0733 111.883 57.1143V57.1553C112.186 57.1553 112.391 57.2864 112.735 57.7208L113.997 59.2943C114.227 59.5894 114.448 59.6795 114.653 59.6795V59.6795ZM110.645 56.9176C111.875 56.9176 112.416 56.7045 112.416 55.844C112.416 54.9507 111.826 54.5081 111.072 54.5081C110.572 54.5081 110.391 54.7048 110.391 55.172V56.9176H110.645V56.9176ZM116.401 59.8844C116.319 59.8926 116.287 59.6385 116.352 59.6221C116.836 59.4992 117.205 59.4255 117.205 58.819V55.1474C117.205 54.5983 116.868 54.459 116.508 54.3688C116.442 54.3524 116.475 54.1065 116.557 54.1147C117.155 54.1639 118.032 54.1639 118.639 54.1639C119.385 54.1639 119.942 54.1311 120.589 54.1147C120.778 54.1147 120.778 54.2459 120.737 54.4262L120.532 55.2047C120.507 55.3113 120.311 55.3113 120.278 55.2047C120.163 54.8196 119.901 54.5491 118.86 54.5491C118.245 54.5491 118.057 54.6966 118.057 55.1474V56.5078C118.057 56.7209 118.163 56.7619 118.327 56.7619H118.483C119.212 56.7619 119.762 56.7127 120.122 56.3685C120.196 56.2948 120.368 56.3111 120.302 56.4669L119.819 57.4995C119.762 57.6388 119.647 57.6224 119.557 57.4995C119.36 57.2454 118.934 57.1471 118.417 57.1471H118.327C118.163 57.1471 118.057 57.1881 118.057 57.4012V58.819C118.057 59.2943 118.27 59.45 118.975 59.45C120.302 59.45 120.729 58.9173 120.933 58.5731C120.999 58.4666 121.196 58.4912 121.196 58.6469C121.196 59.0976 120.852 59.8762 120.352 59.8844C119.958 59.8598 119.434 59.8352 118.729 59.8352C117.975 59.8352 117.155 59.8106 116.401 59.8844V59.8844ZM128.542 59.95C128.41 59.95 128.345 59.8844 128.255 59.7943L124.321 55.549V58.86C124.321 59.4091 124.641 59.5074 125.067 59.614C125.132 59.6303 125.099 59.868 125.018 59.868H123.182C123.108 59.868 123.067 59.6385 123.133 59.614C123.518 59.5074 123.813 59.4091 123.813 58.86V55.6145C123.813 55.09 123.755 54.7458 123.485 54.4426C123.436 54.377 123.362 54.3278 123.362 54.295C123.362 54.2295 123.419 54.1311 123.51 54.1311H124.083C124.173 54.1311 124.231 54.1393 124.288 54.2049L128.148 58.4174V55.131C128.148 54.5573 127.788 54.4835 127.402 54.3852C127.337 54.3688 127.37 54.1311 127.452 54.1311H129.287C129.361 54.1311 129.402 54.3688 129.337 54.3852C128.968 54.4835 128.648 54.5573 128.648 55.131V58.3846C128.648 58.9009 128.665 59.491 128.747 59.7861C128.787 59.9172 128.64 59.95 128.542 59.95V59.95ZM131.273 59.8844C131.191 59.8926 131.159 59.6385 131.224 59.6221C131.708 59.4992 132.077 59.4255 132.077 58.819V55.1474C132.077 54.5983 131.741 54.459 131.38 54.3688C131.314 54.3524 131.347 54.1065 131.429 54.1147C131.765 54.1557 132.109 54.1639 132.388 54.1639C132.962 54.1639 133.535 54.1147 133.962 54.1147C135.986 54.1147 137.018 55.2867 137.018 56.8848C137.018 58.483 135.953 59.8844 133.953 59.8844C133.56 59.8844 133.052 59.8352 132.503 59.8352C132.06 59.8352 131.659 59.8434 131.273 59.8844V59.8844ZM133.978 59.4828C135.396 59.4828 136.166 58.7206 136.166 57.2782C136.166 55.762 135.297 54.5163 133.74 54.5163C133.109 54.5163 132.929 54.7048 132.929 55.1474V58.819C132.929 59.2697 133.175 59.4828 133.978 59.4828V59.4828ZM139.127 59.868C139.062 59.868 139.013 59.6221 139.078 59.614C139.48 59.5566 139.767 59.4091 139.767 58.8764V55.1228C139.767 54.5901 139.48 54.4426 139.078 54.3852C139.013 54.377 139.062 54.1311 139.127 54.1311H141.25C141.316 54.1311 141.365 54.377 141.299 54.3852C140.947 54.4344 140.619 54.5491 140.619 55.1228V58.8764C140.619 59.45 140.947 59.5648 141.299 59.614C141.365 59.6221 141.316 59.868 141.25 59.868H139.127V59.868ZM143.236 59.8844C143.154 59.8926 143.121 59.6385 143.187 59.6221C143.67 59.4992 144.039 59.4255 144.039 58.819V55.1474C144.039 54.5983 143.703 54.459 143.343 54.3688C143.277 54.3524 143.31 54.1065 143.392 54.1147C143.99 54.1639 144.867 54.1639 145.473 54.1639C146.219 54.1639 146.777 54.1311 147.424 54.1147C147.612 54.1147 147.612 54.2459 147.571 54.4262L147.367 55.2047C147.342 55.3113 147.145 55.3113 147.113 55.2047C146.998 54.8196 146.736 54.5491 145.695 54.5491C145.08 54.5491 144.892 54.6966 144.892 55.1474V56.5078C144.892 56.7209 144.998 56.7619 145.162 56.7619H145.318C146.047 56.7619 146.596 56.7127 146.957 56.3685C147.031 56.2948 147.203 56.3111 147.137 56.4669L146.654 57.4995C146.596 57.6388 146.481 57.6224 146.391 57.4995C146.195 57.2454 145.768 57.1471 145.252 57.1471H145.162C144.998 57.1471 144.892 57.1881 144.892 57.4012V58.819C144.892 59.2943 145.105 59.45 145.809 59.45C147.137 59.45 147.563 58.9173 147.768 58.5731C147.834 58.4666 148.03 58.4912 148.03 58.6469C148.03 59.0976 147.686 59.8762 147.186 59.8844C146.793 59.8598 146.268 59.8352 145.564 59.8352C144.81 59.8352 143.99 59.8106 143.236 59.8844V59.8844ZM155.376 59.95C155.245 59.95 155.18 59.8844 155.089 59.7943L151.156 55.549V58.86C151.156 59.4091 151.475 59.5074 151.901 59.614C151.967 59.6303 151.934 59.868 151.852 59.868H150.016C149.943 59.868 149.902 59.6385 149.967 59.614C150.352 59.5074 150.647 59.4091 150.647 58.86V55.6145C150.647 55.09 150.59 54.7458 150.32 54.4426C150.27 54.377 150.197 54.3278 150.197 54.295C150.197 54.2295 150.254 54.1311 150.344 54.1311H150.918C151.008 54.1311 151.065 54.1393 151.123 54.2049L154.983 58.4174V55.131C154.983 54.5573 154.622 54.4835 154.237 54.3852C154.172 54.3688 154.204 54.1311 154.286 54.1311H156.122C156.196 54.1311 156.237 54.3688 156.171 54.3852C155.802 54.4835 155.483 54.5573 155.483 55.131V58.3846C155.483 58.9009 155.499 59.491 155.581 59.7861C155.622 59.9172 155.475 59.95 155.376 59.95V59.95ZM158.108 59.8844C158.026 59.8926 157.993 59.6385 158.059 59.6221C158.542 59.4992 158.911 59.4255 158.911 58.819V55.1474C158.911 54.5983 158.575 54.459 158.215 54.3688C158.149 54.3524 158.182 54.1065 158.264 54.1147C158.6 54.1557 158.944 54.1639 159.223 54.1639C159.796 54.1639 160.37 54.1147 160.796 54.1147C162.821 54.1147 163.853 55.2867 163.853 56.8848C163.853 58.483 162.788 59.8844 160.788 59.8844C160.395 59.8844 159.887 59.8352 159.337 59.8352C158.895 59.8352 158.493 59.8434 158.108 59.8844V59.8844ZM160.813 59.4828C162.23 59.4828 163.001 58.7206 163.001 57.2782C163.001 55.762 162.132 54.5163 160.575 54.5163C159.944 54.5163 159.764 54.7048 159.764 55.1474V58.819C159.764 59.2697 160.009 59.4828 160.813 59.4828V59.4828ZM168.945 59.9991C167.241 59.9991 166.003 58.7288 166.003 57.0242C166.003 55.3769 167.167 54 168.962 54C170.675 54 171.904 55.2703 171.904 56.9668C171.904 58.6223 170.748 59.9991 168.945 59.9991ZM169.249 59.4992C170.003 59.4992 171.06 59.0157 171.06 57.393C171.06 55.6965 169.896 54.4999 168.667 54.4999C167.904 54.4999 166.855 54.9835 166.855 56.598C166.855 58.3109 168.011 59.4992 169.249 59.4992ZM178.605 59.9991C177.925 59.9991 176.941 59.6877 177.031 59.3435L177.105 59.0567C177.326 58.2617 177.572 59.4582 178.925 59.4582C179.638 59.4582 180.039 59.114 180.039 58.5977C180.039 58.1715 179.728 57.983 179.203 57.6716L178.285 57.1143C177.449 56.6062 177.122 56.2456 177.122 55.6801C177.122 54.7048 178.056 54 179.097 54C179.728 54 180.498 54.2623 180.416 54.5409L180.318 54.8441C180.088 55.5817 179.875 54.5327 178.752 54.5327C178.121 54.5327 177.802 54.8605 177.802 55.3031C177.802 55.6637 178.023 55.8768 178.572 56.2128L179.531 56.7865C180.367 57.2864 180.703 57.6634 180.703 58.2289C180.703 59.2288 179.703 59.9991 178.605 59.9991ZM182.812 59.868C182.746 59.868 182.697 59.6221 182.763 59.614C183.164 59.5566 183.451 59.4091 183.451 58.8764V55.1228C183.451 54.5901 183.164 54.4426 182.763 54.3852C182.697 54.377 182.746 54.1311 182.812 54.1311H184.935C185 54.1311 185.049 54.377 184.984 54.3852C184.631 54.4344 184.304 54.5491 184.304 55.1228V58.8764C184.304 59.45 184.631 59.5648 184.984 59.614C185.049 59.6221 185 59.868 184.935 59.868H182.812ZM186.921 59.8844C186.839 59.8926 186.806 59.6385 186.871 59.6221C187.355 59.4992 187.724 59.4255 187.724 58.819V55.1474C187.724 54.5983 187.388 54.459 187.027 54.3688C186.962 54.3524 186.994 54.1065 187.076 54.1147C187.675 54.1639 188.551 54.1639 189.158 54.1639C189.904 54.1639 190.461 54.1311 191.109 54.1147C191.297 54.1147 191.297 54.2459 191.256 54.4262L191.051 55.2047C191.027 55.3113 190.83 55.3113 190.797 55.2047C190.682 54.8196 190.42 54.5491 189.379 54.5491C188.765 54.5491 188.576 54.6966 188.576 55.1474V56.5078C188.576 56.7209 188.683 56.7619 188.847 56.7619H189.002C189.732 56.7619 190.281 56.7127 190.641 56.3685C190.715 56.2948 190.887 56.3111 190.822 56.4669L190.338 57.4995C190.281 57.6388 190.166 57.6224 190.076 57.4995C189.879 57.2454 189.453 57.1471 188.937 57.1471H188.847C188.683 57.1471 188.576 57.1881 188.576 57.4012V58.819C188.576 59.2943 188.789 59.45 189.494 59.45C190.822 59.45 191.248 58.9173 191.453 58.5731C191.518 58.4666 191.715 58.4912 191.715 58.6469C191.715 59.0976 191.371 59.8762 190.871 59.8844C190.477 59.8598 189.953 59.8352 189.248 59.8352C188.494 59.8352 187.675 59.8106 186.921 59.8844V59.8844ZM200.872 59.614C200.938 59.6221 200.888 59.868 200.823 59.868H198.84C198.782 59.868 198.733 59.6221 198.79 59.614C199.094 59.5648 199.364 59.4255 199.34 58.8764L199.192 55.9096L197.758 58.8272C197.61 59.1304 197.463 59.4992 197.438 59.6467C197.422 59.7369 197.282 59.7943 197.168 59.7943C197.053 59.7943 196.987 59.7451 196.938 59.6467L194.988 55.9423L194.865 58.8764C194.84 59.4255 195.119 59.5812 195.414 59.614C195.479 59.6221 195.43 59.868 195.373 59.868H193.742C193.676 59.868 193.627 59.6221 193.693 59.614C194.045 59.573 194.357 59.45 194.381 58.8764L194.627 54.1393C194.635 54.0164 194.914 54.0082 194.979 54.1393L197.364 58.6469L199.594 54.1393C199.659 54.0082 199.938 54.0164 199.946 54.1393L200.192 58.8764C200.216 59.45 200.511 59.573 200.872 59.614V59.614ZM207.595 55.8686C207.595 57.352 206.226 57.9339 204.423 57.647V58.8764C204.423 59.45 204.8 59.5484 205.35 59.614C205.407 59.6221 205.366 59.868 205.3 59.868H202.932C202.866 59.868 202.817 59.6221 202.883 59.614C203.284 59.5566 203.571 59.4091 203.571 58.8764V55.172C203.571 54.6311 203.284 54.4753 202.883 54.3688C202.817 54.3524 202.858 54.1065 202.932 54.1147C203.26 54.1557 203.62 54.1639 203.866 54.1639C204.415 54.1639 204.907 54.1147 205.333 54.1147C206.554 54.1147 207.595 54.5737 207.595 55.8686V55.8686ZM205.161 54.5081C204.587 54.5081 204.423 54.6966 204.423 55.172V57.2864C205.874 57.4831 206.677 57.1881 206.677 56.0489C206.677 54.9835 205.981 54.5081 205.161 54.5081ZM215.457 59.6795C215.523 59.6795 215.515 59.8844 215.457 59.909C214.998 60.0811 214.318 60.0237 213.867 59.4418L212.589 57.8027C212.245 57.3602 211.794 57.2782 211.196 57.27V58.8764C211.196 59.45 211.573 59.5484 212.122 59.614C212.179 59.6221 212.138 59.868 212.073 59.868H209.704C209.638 59.868 209.589 59.6221 209.655 59.614C210.056 59.5566 210.343 59.4091 210.343 58.8764V55.172C210.343 54.6311 210.056 54.4753 209.655 54.3688C209.589 54.3524 209.63 54.1065 209.704 54.1147C210.032 54.1557 210.392 54.1639 210.638 54.1639C211.187 54.1639 211.712 54.1147 212.089 54.1147C213.261 54.1147 214.121 54.6065 214.121 55.6309C214.121 56.6062 213.31 57.0733 212.687 57.1143V57.1553C212.99 57.1553 213.195 57.2864 213.54 57.7208L214.802 59.2943C215.031 59.5894 215.252 59.6795 215.457 59.6795V59.6795ZM211.45 56.9176C212.679 56.9176 213.22 56.7045 213.22 55.844C213.22 54.9507 212.63 54.5081 211.876 54.5081C211.376 54.5081 211.196 54.7048 211.196 55.172V56.9176H211.45V56.9176ZM217.206 59.8844C217.124 59.8926 217.091 59.6385 217.156 59.6221C217.64 59.4992 218.009 59.4255 218.009 58.819V55.1474C218.009 54.5983 217.673 54.459 217.312 54.3688C217.247 54.3524 217.279 54.1065 217.361 54.1147C217.96 54.1639 218.837 54.1639 219.443 54.1639C220.189 54.1639 220.746 54.1311 221.394 54.1147C221.582 54.1147 221.582 54.2459 221.541 54.4262L221.336 55.2047C221.312 55.3113 221.115 55.3113 221.082 55.2047C220.967 54.8196 220.705 54.5491 219.664 54.5491C219.05 54.5491 218.861 54.6966 218.861 55.1474V56.5078C218.861 56.7209 218.968 56.7619 219.132 56.7619H219.287C220.017 56.7619 220.566 56.7127 220.926 56.3685C221 56.2948 221.172 56.3111 221.107 56.4669L220.623 57.4995C220.566 57.6388 220.451 57.6224 220.361 57.4995C220.164 57.2454 219.738 57.1471 219.222 57.1471H219.132C218.968 57.1471 218.861 57.1881 218.861 57.4012V58.819C218.861 59.2943 219.074 59.45 219.779 59.45C221.107 59.45 221.533 58.9173 221.738 58.5731C221.803 58.4666 222 58.4912 222 58.6469C222 59.0976 221.656 59.8762 221.156 59.8844C220.762 59.8598 220.238 59.8352 219.533 59.8352C218.779 59.8352 217.96 59.8106 217.206 59.8844V59.8844Z" fill="white"/>
</g>
<defs>
<clipPath id="clip0">
<rect width="294" height="73.5" fill="white"/>
</clipPath>
</defs>
</svg>
